<svg preserveAspectRatio="none" width="100%" height="100%" overflow="visible" style="display: block;" viewBox="0 0 24 24" fill="none" xmlns="http://www.w3.org/2000/svg">
<g id="Language">
<circle id="Ellipse 27" cx="12" cy="12" r="8.4" stroke="var(--stroke-0, #1E1E24)" stroke-width="1.2"/>
<path id="Ellipse 28" d="M12 3.59961C12.1516 3.59961 12.3913 3.69206 12.6963 4.0791C12.9959 4.45938 13.292 5.0469 13.5518 5.82617C14.0692 7.37868 14.4004 9.56139 14.4004 12C14.4004 14.4386 14.0692 16.6213 13.5518 18.1738C13.292 18.9531 12.9959 19.5406 12.6963 19.9209C12.3913 20.3079 12.1516 20.4004 12 20.4004C11.8484 20.4004 11.6087 20.3079 11.3037 19.9209C11.0041 19.5406 10.708 18.9531 10.4482 18.1738C9.93078 16.6213 9.59961 14.4386 9.59961 12C9.59961 9.56139 9.93078 7.37868 10.4482 5.82617C10.708 5.0469 11.0041 4.45938 11.3037 4.0791C11.6087 3.69206 11.8484 3.59961 12 3.59961Z" stroke="var(--stroke-0, #1E1E24)" stroke-width="1.2"/>
<line id="Line 1171" x1="4" y1="12.0016" x2="20" y2="12.0016" stroke="var(--stroke-0, #1E1E24)" stroke-width="1.2"/>
</g>
</svg>
